<svg xmlns="http://www.w3.org/2000/svg" width="19" height="16" viewBox="0 0 19 16"><path fill="#ff8b00" d="M14.18 16a.933.933 0 0 0 .483-.172.6.6 0 0 0 .307-.507.95.95 0 0 0-.001-.317L13.6 10.26l4-3.38a.71.71 0 0 0 .27-.55l.001-.043a.784.784 0 0 0-.212-.538.7.7 0 0 0-.5-.21h-.011l-4.809-.34-2.16-4.76a.631.631 0 0 0-.683-.44.63.63 0 0 0-.676.435L6.659 5.198l-4.82.34a.721.721 0 0 0-.679.505.81.81 0 0 0-.001.28.599.599 0 0 0 .267.544l4.002 3.421-1.37 4.71v.17c.029.261.154.488.339.649a.983.983 0 0 0 .407.141c.169-.014.318-.065.45-.142l4.245-2.727 4.27 2.77a.555.555 0 0 0 .372.141l.04-.001z"/></svg>