<svg width="192" height="81" viewBox="0 0 192 81" fill="none" xmlns="http://www.w3.org/2000/svg">
<g clip-path="url(#clip0)">
<path d="M13.2438 2.87071H11.0891C10.4239 2.87071 9.78153 3.00856 9.15919 3.2856C8.53552 3.56264 7.98145 4.00429 7.49964 4.61324C7.01516 5.22219 6.62972 6.00244 6.33528 6.95802C6.0462 7.91093 5.90166 9.0512 5.90166 10.3788C5.90166 11.677 6.06226 12.7785 6.37945 13.6765C6.69797 14.5759 7.11955 15.316 7.64552 15.8982C8.17149 16.4777 8.76572 16.8993 9.42954 17.1616C10.092 17.4252 10.7839 17.5564 11.504 17.5564H13.2438V2.86937V2.87071ZM4.94608 32.1203H1.17194L7.89312 19.7138C5.92976 18.7743 4.52584 17.5229 3.68268 15.9598C2.83952 14.3979 2.4166 12.5376 2.4166 10.3788C2.4166 8.71929 2.65215 7.25514 3.12191 5.98237C3.59033 4.71094 4.22872 3.64026 5.03039 2.76766C5.8334 1.89505 6.76623 1.23926 7.83022 0.796271C8.89688 0.354616 10.0224 0.133789 11.2136 0.133789H16.5241V32.1203H13.2438V20.2545H11.0891L4.94608 32.1203Z" fill="#FF0000"/>
<path fill-rule="evenodd" clip-rule="evenodd" d="M49.3391 36.269H46.3947V32.08H37.2271V36.269H34.28V29.3819H35.5648C36.23 28.1372 36.7479 26.7962 37.1227 25.3575C37.4974 23.9187 37.7785 22.4666 37.9725 21.0011C38.1666 19.5356 38.283 18.0835 38.3259 16.6448C38.3687 15.2061 38.3888 13.837 38.3888 12.5361V10.7133H47.6822V29.3832H49.3418V36.269H49.3391ZM63.6956 31.1244C63.0036 31.5125 62.2368 31.8498 61.3936 32.1415C60.5505 32.432 59.6002 32.5765 58.551 32.5765C56.3935 32.5765 54.6644 31.6798 53.3649 29.8811C52.0667 28.0837 51.4149 25.5529 51.4149 22.2886C51.4149 20.712 51.5487 19.197 51.8097 17.7463C52.0734 16.2915 52.4735 15.0067 53.0142 13.8865C53.5536 12.7649 54.2375 11.8656 55.0672 11.1897C55.897 10.5125 56.8914 10.1726 58.0518 10.1726C59.7675 10.1726 61.1514 11.0318 62.2006 12.7462C63.2526 14.4593 63.7799 16.9914 63.7799 20.3386V22.1642H54.8585C54.8585 24.4875 55.2519 26.2997 56.0402 27.5978C56.8298 28.8987 58.0665 29.5492 59.7541 29.5492C60.3899 29.5492 61.047 29.4595 61.7242 29.2815C62.4027 29.0995 62.9354 28.9268 63.3222 28.7595L63.6969 31.1257L63.6956 31.1244ZM57.9273 12.8292C57.4589 12.8292 57.044 12.9938 56.6826 13.3244C56.324 13.659 56.0201 14.1207 55.7726 14.7163C55.5223 15.3105 55.3282 16.0091 55.1904 16.8108C55.0525 17.6138 54.9548 18.4837 54.9 19.4259H60.3765V18.9709C60.3765 18.8317 60.3698 18.6791 60.3564 18.5131C60.343 18.3472 60.335 18.1679 60.335 17.9738C60.2239 16.341 59.9602 15.0749 59.5454 14.1756C59.1305 13.2789 58.5924 12.8278 57.9286 12.8278L57.9273 12.8292ZM44.4033 13.3672V29.3819H38.4717C39.0231 28.4691 39.4795 27.3904 39.8395 26.1457C40.2009 24.9011 40.49 23.5801 40.7094 22.1842C40.9316 20.787 41.0842 19.363 41.1672 17.9095C41.2501 16.4574 41.2916 15.0816 41.2916 13.7821V13.3672H44.4033ZM32.3715 10.7119V32.08H29.0926V21.8724H24.1983V32.0786H20.8792V10.7106H24.1983V19.1328H29.0939V10.7119H32.3729H32.3715ZM79.5456 32.08H75.8518L70.7487 21.5405L70.3739 21.0854V32.0786H67.0548V10.7106H70.3739V20.4189L70.7487 20.0041L75.2723 10.7106H78.7975L73.5712 20.336L79.5456 32.0773V32.08ZM83.8176 21.4575C83.8176 23.9736 84.2058 25.9517 84.9793 27.3904C85.7556 28.8291 86.9427 29.5478 88.5474 29.5478C89.1563 29.5478 89.7786 29.4582 90.4143 29.2802C91.0514 29.0981 91.5653 28.9255 91.9508 28.7582L92.2827 31.1244C91.647 31.5125 90.935 31.8498 90.1467 32.1415C89.3571 32.432 88.4657 32.5765 87.47 32.5765C85.342 32.5765 83.6182 31.6932 82.304 29.9226C80.9924 28.1519 80.3339 25.6077 80.3339 22.2886C80.3339 20.4631 80.5213 18.8036 80.896 17.31C81.2681 15.8164 81.7726 14.5436 82.4084 13.493C83.0441 12.4437 83.8056 11.6273 84.6902 11.0465C85.5735 10.4657 86.5291 10.1766 87.5543 10.1766C88.4644 10.1766 89.2888 10.2997 90.0222 10.5486C90.7543 10.7976 91.4114 11.1295 91.9923 11.5444L90.2899 14.4084C89.9018 13.9641 89.4668 13.592 88.9823 13.2869C88.5005 12.9831 88.0093 12.8319 87.5101 12.8319C86.9306 12.8319 86.4047 13.0795 85.9349 13.5773C85.4665 14.0752 85.0784 14.7256 84.7732 15.5273C84.4694 16.3303 84.2339 17.2484 84.0679 18.287C83.9019 19.3242 83.819 20.3815 83.819 21.4588L83.8176 21.4575ZM106.61 27.116H108.224L112.654 10.6437C112.983 9.40167 113.273 8.20117 113.644 6.54564H113.811C113.728 8.03656 113.645 9.52614 113.645 10.9354V31.6704H115.632V2.07422H113.313L108.267 20.9904C108.058 21.7359 107.726 23.3084 107.561 24.426H107.437C107.312 23.3098 107.022 21.7787 106.816 20.9918L101.808 2.07422H99.4067V31.6691H101.227V10.9341C101.227 9.44182 101.187 7.95224 101.104 6.5443H101.228C101.477 7.90941 101.809 9.23438 102.223 10.7668L106.607 27.1147L106.61 27.116ZM124.407 30.5114C126.353 30.5114 127.719 28.6511 128.462 26.4134V20.6612H126.227C122.793 20.6612 121.137 22.2338 121.137 25.8754C121.137 28.8144 122.422 30.5114 124.407 30.5114ZM129.043 31.6704C128.877 31.1324 128.671 30.3455 128.548 28.8559C127.554 30.8433 126.063 32.0853 123.993 32.0853C121.18 32.0853 119.234 29.8503 119.234 26.0413C119.234 21.5713 121.677 19.2532 126.188 19.2532H128.464V16.6461C128.464 13.4582 127.264 12.0918 124.988 12.0918C123.208 12.0918 121.594 12.9215 120.601 14.3696L120.063 12.5066C120.89 11.4306 122.628 10.3947 124.988 10.3947C128.423 10.3947 130.368 12.2992 130.368 16.4387V27.8214C130.368 29.2694 130.577 30.8862 130.823 31.6704H129.043ZM140.633 30.5114C143.283 30.5114 145.02 27.3663 145.02 20.7843C145.02 15.3198 143.531 12.0904 141.13 12.0904C139.267 12.0904 137.694 14.0779 136.784 16.3129V27.9833C137.611 29.683 138.77 30.5088 140.633 30.5088V30.5114ZM140.509 32.0438C138.937 32.0438 137.571 31.2569 136.785 30.2237V38.128H134.839V10.8083H136.536L136.702 14.2438C137.613 12.2564 139.145 10.3934 141.462 10.3934C144.939 10.3934 146.968 14.5744 146.968 20.6184C146.968 28.2737 144.401 32.0425 140.51 32.0425L140.509 32.0438ZM152.638 20.8686L159.881 31.6691H162.036L154.666 20.4939L161.537 10.8096H159.634L152.638 20.6197V10.8096H150.692V31.6704H152.637V20.8646L152.638 20.8686ZM174.244 28.1519L174.865 29.7258C174.865 29.7258 173.294 32.0853 169.983 32.0853C165.553 32.0853 163.526 28.0703 163.526 21.2394C163.526 14.4084 166.091 10.3934 169.61 10.3934C173.21 10.3934 175.529 14.1608 174.867 21.5686H165.431C165.512 27.2833 167.004 30.3883 170.026 30.3883C172.796 30.3883 174.246 28.1533 174.247 28.1506L174.244 28.1519ZM169.608 12.0115C167.414 12.0115 165.634 14.8247 165.47 20.0415H173.045C173.377 14.4927 171.72 12.0115 169.61 12.0115H169.608ZM188.649 12.4237V10.8083H177.059V12.4223H181.904V31.6678H183.847V12.4237H188.649Z" fill="#333333"/>
</g>
<path fill-rule="evenodd" clip-rule="evenodd" d="M175.729 75.1627L185.784 80.9383L183.124 70.0457L192 62.7204L180.299 61.7643L175.729 51.4946L171.158 61.7643L159.457 62.7204L168.333 70.0457L165.673 80.9383L175.729 75.1627Z" fill="#F8A82C"/>
<path fill-rule="evenodd" clip-rule="evenodd" d="M135.93 75.1627L145.986 80.9383L143.326 70.0457L152.202 62.7204L140.501 61.7643L135.93 51.4946L131.36 61.7643L119.659 62.7204L128.535 70.0457L125.875 80.9383L135.93 75.1627Z" fill="#F8A82C"/>
<path fill-rule="evenodd" clip-rule="evenodd" d="M96.1322 75.1627L106.188 80.9383L103.528 70.0457L112.404 62.7204L100.703 61.7643L96.1322 51.4946L91.5615 61.7643L79.8607 62.7204L88.7368 70.0457L86.0764 80.9383L96.1322 75.1627Z" fill="#F8A82C"/>
<path fill-rule="evenodd" clip-rule="evenodd" d="M56.3334 75.1627L66.3892 80.9383L63.7288 70.0457L72.6049 62.7204L60.904 61.7643L56.3334 51.4946L51.7627 61.7643L40.0619 62.7204L48.938 70.0457L46.2776 80.9383L56.3334 75.1627Z" fill="#F8A82C"/>
<path fill-rule="evenodd" clip-rule="evenodd" d="M16.5352 75.1627L26.5909 80.9383L23.9306 70.0457L32.8067 62.7204L21.1058 61.7643L16.5352 51.4946L11.9645 61.7643L0.263672 62.7204L9.13977 70.0457L6.47938 80.9383L16.5352 75.1627Z" fill="#F8A82C"/>
<defs>
<clipPath id="clip0">
<rect x="0.75708" width="188.707" height="38.8121" fill="white"/>
</clipPath>
</defs>
</svg>
