<svg width="19.043" height="24.844" viewBox="5.449219 -52.324219 19.042969 24.843750" xmlns="http://www.w3.org/2000/svg"><path d="M24.492-42.773c-.078-.391-.234-.704-.469-.938l-8.144-8.144c-.274-.313-.566-.47-.879-.47-.313 0-.625.157-.938.47l-8.144 8.144c-.313.313-.469.625-.469.938 0 .273.156.566.469.878.39.313.703.47.937.47.274 0 .567-.157.88-.47l5.976-5.917v19.042c0 .352.137.645.41.88.234.273.527.41.879.41s.664-.137.938-.41c.234-.235.351-.528.351-.88v-19.043l5.977 5.918c.234.274.527.41.879.41.351 0 .664-.136.937-.41a1.11 1.11 0 0 0 .41-.878zm0 0"/></svg>