<svg width="19.102" height="24.727" viewBox="5.449219 -52.089844 19.101562 24.726562" xmlns="http://www.w3.org/2000/svg"><path d="M24.55-36.797c0-.312-.155-.605-.468-.879-.273-.312-.586-.469-.937-.469-.313 0-.606.157-.88.47l-5.976 5.917V-50.8a1.4 1.4 0 0 0-.352-.937A1.4 1.4 0 0 0 15-52.09c-.352 0-.645.117-.879.352-.273.273-.41.586-.41.937v19.043l-5.918-5.918c-.273-.312-.586-.469-.938-.469-.312 0-.625.157-.937.47-.313.312-.469.605-.469.878 0 .234.156.547.469.938l8.145 8.144c.312.235.624.352.937.352a1.4 1.4 0 0 0 .938-.352l8.144-8.144c.313-.313.469-.625.469-.938zm0 0"/></svg>