<?xml version="1.0" encoding="utf-8"?>
<!-- Generator: Adobe Illustrator 24.0.3, SVG Export Plug-In . SVG Version: 6.00 Build 0)  -->
<svg version="1.1" id="Layer_1" xmlns="http://www.w3.org/2000/svg" xmlns:xlink="http://www.w3.org/1999/xlink" x="0px" y="0px"
	 viewBox="0 0 277.8 46.3" style="enable-background:new 0 0 277.8 46.3;" xml:space="preserve">
<path d="M0,46.3h46.3V0H0V46.3z M4.1,4.1h38.1v38.1H4.1V4.1z M93.8,30.2h-3.4V6.5h3.4V4.1h-3.2h-6.2H81v2.4h3.4v23.6H81v2.4h3.4h6.2
	h3.2V30.2z M135.5,30.2h-3.3V6.5h3.3V4.1h-9.2l-9.9,19.8l-9.9-19.8h-5.7h-3.3v2.4h3.3v23.6h-3.3v2.4h3.3h2.4h3.4v-2.4h-3.4V9.9
	l10,20.1h3.2l9.9-20.1v20.2H123v2.4h3.3h5.9h3.3V30.2z M53.5,9.5h2.6v-3H63v23.6h-3.3v2.4H63H66h2.9h3.4v-2.4H69V6.5h6.8v3h2.6V4.1
	h-25V9.5z M275.6,26.5v3.2h-11.4v-11h8.9v3h2.3v-8.5h-2.3v3h-8.9V7h10.5v2.8h2.3V4.1h-22.2v2.4h3.3v23.6h-3.3v2.4h22.9v-6H275.6z
	 M248.9,30.2c2-1.6,2.9-3.6,2.8-6.1c-0.1-2.2-0.8-3.8-2.3-5c-1.5-1.2-3.1-1.8-5.1-1.9V17c1.9-0.2,3.4-1,4.5-2.2
	c1.1-1.2,1.6-2.6,1.5-4.3c-0.1-1.6-0.8-3-2.2-4.4c-1.3-1.3-3.8-2-7.3-2h-13.2v2.4h3.3v23.6h-3.3v2.4h13.9
	C244.4,32.5,246.9,31.7,248.9,30.2z M237,6.5h2c1.8,0,3.2,0.5,4,1.4c0.9,0.9,1.3,1.9,1.4,3.1c0.1,1.4-0.4,2.6-1.4,3.6
	c-1,1.1-2.3,1.6-4,1.6H237V6.5z M237,30.1V18.6h2c1.4,0,2.9,0.3,4.4,1c1.5,0.7,2.2,2.2,2.2,4.5c0.1,1.7-0.5,3.1-1.7,4.2
	c-1.2,1.1-2.7,1.7-4.4,1.7H237z M161.9,26.5h-2.2v3.2h-11.4v-11h8.9v3h2.3v-8.5h-2.3v3h-8.9V7h10.5v2.8h2.3V4.1H139v2.4h3.3v23.6
	H139v2.4h22.9V26.5z M181.3,30.6c-3.1,0-5.5-1.1-7.2-3.3c-1.7-2.2-2.6-5-2.8-8.5c-0.1-2.8,0.3-5.2,1.2-7.1c0.9-1.9,2-3.4,3.5-4.3
	c1.4-0.9,3-1.4,4.8-1.4c1.9,0,3.6,0.6,5.1,1.8c1.5,1.2,2.2,2.6,2.3,4.2h2.4V4h-2.1L187,6.2c-2.1-1.5-4.5-2.4-7.1-2.5
	c-3-0.2-5.7,0.4-8.1,1.7c-2.4,1.3-4.3,3.1-5.6,5.5c-1.3,2.4-1.9,4.9-1.8,7.7c0.1,2.9,0.9,5.5,2.4,7.8c1.5,2.3,3.5,4,5.9,5.1
	c2.5,1.2,5,1.7,7.7,1.6c4.3-0.2,7.9-1.9,11-5.1l-2.1-1.6C187.1,29.1,184.4,30.5,181.3,30.6z M224.2,4.1h-8.9v2.4h3.4v14.8
	c0,6.1-2.5,9.2-7.5,9.4c-3.4,0-5.5-0.9-6.3-2.8c-0.9-1.9-1.3-4.1-1.3-6.6V6.5h3.4V4.1h-12.7v2.4h3.3v15.2c0,1.5,0.1,2.8,0.3,3.9
	c0.2,1.2,0.7,2.3,1.4,3.4c0.7,1.1,2,2,3.7,2.8c1.7,0.7,4,1.1,7,1.1c4.7,0,7.7-1.2,9-3.6c1.3-2.3,2-5.1,2-8.1V6.5h3.4V4.1z
	 M152.4,37.2c-0.6-0.3-1.4-0.4-2.2-0.4h-1.9h-0.9v0.6h0.9v6.1h-0.9v0.6h0.9h1.6h0.9v-0.6h-0.9v-2.2c0.7,0,1.3,0,1.7-0.1
	c0.4-0.1,0.8-0.3,1.1-0.5c0.3-0.2,0.4-0.5,0.6-0.8c0.1-0.3,0.2-0.6,0.2-1C153.3,38.1,153,37.5,152.4,37.2z M151.4,40.2
	c-0.2,0.3-0.5,0.4-0.8,0.5c-0.3,0.1-0.6,0.1-0.8,0.1v-3.4c0.5,0,1,0,1.3,0.3c0.4,0.2,0.6,0.6,0.6,1.3
	C151.8,39.5,151.7,39.9,151.4,40.2z M59.3,36.8h-0.9l-2.7,6.8h-0.8v0.6h2.2v-0.6h-0.8l0.6-1.4h3.2l0.6,1.4h-0.9v0.6h3.3l0-0.6h-0.8
	L59.3,36.8z M57.1,41.5l1.3-3.1l0-0.2h0.1l0,0.2l1.4,3.1H57.1z M239,36.8h-0.9l-2.7,6.8h-0.8v0.6h2.2v-0.6H236l0.6-1.4h3.2l0.6,1.4
	h-0.9v0.6h3.3l0-0.6h-0.8L239,36.8z M236.8,41.5l1.3-3.1l0-0.2h0.1l0,0.2l1.4,3.1H236.8z M184.3,36.8h-1.2h-0.9v0.6h0.8l-2.3,6.1
	h-0.8v2.7h1.2v-2h5.4v2h1.1l0-2.7h-0.9L184.3,36.8z M181.5,43.4l1.8-4.8l0.1-0.4h0.1l0.1,0.3l1.6,4.8H181.5z M207.3,36.8
	c-0.6,0-1,0.1-1.4,0.3c-0.4,0.2-0.7,0.5-0.9,0.8c-0.2,0.3-0.3,0.7-0.3,1.1c0,0.4,0.1,0.7,0.3,1c0.2,0.3,0.4,0.5,0.7,0.7
	c0.3,0.2,0.5,0.3,0.8,0.3v0.1c-0.3,0-0.6,0.3-0.8,0.6l-0.7,1.2c-0.2,0.3-0.4,0.6-0.5,0.6c-0.1,0.1-0.2,0.1-0.4,0.1c0,0-0.1,0-0.1,0
	c0,0-0.1,0-0.1,0v0.6c0.4,0.1,0.9,0.1,1.3,0.1c0.5,0,0.9-0.2,1.1-0.6l1-1.9c0.1-0.2,0.3-0.4,0.4-0.5c0.1-0.1,0.4-0.2,0.8-0.1v2.4
	h-0.9v0.6h0.9h1.6h0.9v-0.6H210v-6.1h0.9v-0.6H210H207.3z M208.4,40.6c-0.7,0-1.2,0-1.5-0.3c-0.3-0.2-0.5-0.7-0.5-1.4
	c0.1-1.1,0.7-1.6,2-1.5V40.6z M196.3,36.8h-1.2h-0.8v0.6h0.8l-2.1,5.2c-0.1,0.4-0.3,0.5-0.5,0.5c-0.2,0-0.3-0.1-0.4-0.2l-0.5,1.2
	c0.3,0.1,0.5,0.1,0.8,0.1c0.3,0,0.6-0.1,0.8-0.3c0.2-0.2,0.3-0.4,0.4-0.7l1.8-4.6l0.1-0.3h0.1l0.1,0.3l1.8,4.8h-0.8v0.6h3.2v-0.6
	h-0.7L196.3,36.8z M227.2,37.4h0.9v3c-0.2,0.1-0.5,0.2-0.8,0.3c-0.3,0.1-0.6,0.1-0.8,0.1c-0.7,0-1-0.4-1-1.2v-2.2h0.9v-0.6H223v0.6
	h0.8v2.3c0,1.2,0.7,1.8,2.2,1.8c0.5,0,1.2-0.1,2.1-0.4v2.5h-0.9v0.6h3.3v-0.6h-0.9v-6.1h0.9v-0.6h-3.3V37.4z M275.5,40.2L275.5,40.2
	c0.5-0.1,0.9-0.3,1.2-0.6c0.3-0.3,0.4-0.7,0.4-1.1c0-0.4-0.2-0.8-0.6-1.1c-0.3-0.3-1-0.5-1.9-0.5h-3.4v0.6h0.9v6.1h-0.9v0.6h3.6
	c0.7,0,1.4-0.2,1.9-0.6c0.5-0.4,0.8-0.9,0.7-1.6c0-0.6-0.2-1-0.6-1.3C276.4,40.3,276,40.2,275.5,40.2z M273.6,37.4h0.5
	c0.5,0,0.8,0.1,1,0.4c0.2,0.2,0.4,0.5,0.4,0.8c0,0.4-0.1,0.7-0.4,0.9c-0.3,0.3-0.6,0.4-1,0.4h-0.5V37.4z M275.4,43.1
	c-0.3,0.3-0.7,0.4-1.1,0.4h-0.6v-3h0.5c0.4,0,0.8,0.1,1.1,0.3c0.4,0.2,0.6,0.6,0.6,1.2C275.8,42.4,275.7,42.8,275.4,43.1z
	 M73.1,42.5l-1.7-3.1l2.1-2h0.9v-0.6h-2.7v0.6h0.9l-3,2.9v-2.9h0.9v-0.6h-0.9h-1.6h-0.9v0.6h0.9v6.1h-0.9v0.6h0.9h1.6h0.9v-0.6h-0.9
	v-2.4l0.6-0.6l1.5,2.6c0.5,0.8,1.1,1.2,2,1.2c0.3,0,0.6-0.1,0.9-0.2v-0.6c-0.4,0-0.7-0.1-0.9-0.2C73.6,43.1,73.3,42.9,73.1,42.5z
	 M129,37.4h0.8l-1.5,3.4l0,0.3h-0.1l0-0.3l-1.8-3.4h0.9v-0.6h-3.1v0.6h0.7l2.7,5.2l-0.1,0.3c-0.2,0.3-0.4,0.5-0.6,0.5
	c-0.2,0-0.4-0.1-0.7-0.3l-0.4,1c0.3,0.2,0.6,0.2,1,0.2c0.4,0,0.7-0.1,0.9-0.3s0.4-0.5,0.5-0.9l2.5-5.7h0.8v-0.6H129V37.4z
	 M117.3,43.6c-0.8,0-1.4-0.3-1.9-0.8c-0.4-0.6-0.7-1.3-0.7-2.2c0-0.7,0.1-1.3,0.3-1.9c0.2-0.5,0.5-0.9,0.9-1.1
	c0.4-0.2,0.8-0.4,1.2-0.4c0.5,0,0.9,0.2,1.3,0.5c0.4,0.3,0.6,0.7,0.6,1.1h0.6v-2.1h-0.5l-0.4,0.6c-0.5-0.4-1.2-0.6-1.9-0.7
	c-0.8,0-1.5,0.1-2.1,0.4c-0.6,0.3-1.1,0.8-1.5,1.4c-0.3,0.6-0.5,1.3-0.5,2c0,0.8,0.2,1.4,0.6,2c0.4,0.6,0.9,1,1.5,1.3
	c0.6,0.3,1.3,0.4,2,0.4c1.1,0,2.1-0.5,2.8-1.3l-0.5-0.4C118.8,43.3,118.1,43.6,117.3,43.6z M251.2,43.6c-0.8,0-1.4-0.3-1.9-0.8
	c-0.4-0.6-0.7-1.3-0.7-2.2c0-0.7,0.1-1.3,0.3-1.9c0.2-0.5,0.5-0.9,0.9-1.1c0.4-0.2,0.8-0.4,1.2-0.4c0.5,0,0.9,0.2,1.3,0.5
	c0.4,0.3,0.6,0.7,0.6,1.1h0.6v-2.1H253l-0.4,0.6c-0.5-0.4-1.2-0.6-1.9-0.7c-0.8,0-1.5,0.1-2.1,0.4c-0.6,0.3-1.1,0.8-1.5,1.4
	c-0.3,0.6-0.5,1.3-0.5,2c0,0.8,0.2,1.4,0.6,2c0.4,0.6,0.9,1,1.5,1.3c0.6,0.3,1.3,0.4,2,0.4c1.1,0,2.1-0.5,2.8-1.3l-0.5-0.4
	C252.7,43.3,252,43.6,251.2,43.6z M139.4,36.8h-0.9l-2.7,6.8h-0.8v0.6h2.2v-0.6h-0.8l0.6-1.4h3.2l0.6,1.4h-0.9v0.6h3.3l0-0.6h-0.8
	L139.4,36.8z M137.1,41.5l1.3-3.1l0-0.2h0.1l0,0.2l1.4,3.1H137.1z M264.5,37.2c-0.6-0.4-1.3-0.5-2.1-0.5c-0.8,0-1.5,0.2-2.1,0.5
	c-0.6,0.4-1.1,0.8-1.5,1.4c-0.3,0.6-0.5,1.2-0.5,1.8c0,0.7,0.2,1.3,0.5,1.9c0.3,0.6,0.8,1.1,1.5,1.4c0.6,0.4,1.4,0.5,2.1,0.5
	c0.8,0,1.5-0.2,2.1-0.5c0.6-0.4,1.1-0.8,1.5-1.4c0.4-0.6,0.5-1.2,0.5-1.9c0-0.6-0.2-1.3-0.5-1.9C265.7,38,265.2,37.5,264.5,37.2z
	 M264.4,42.4c-0.2,0.5-0.5,0.8-0.9,1c-0.4,0.2-0.7,0.3-1.1,0.3c-0.4,0-0.7-0.1-1.1-0.3c-0.4-0.2-0.7-0.6-0.9-1.1
	c-0.2-0.5-0.3-1.1-0.3-1.9c0-1.1,0.2-2,0.7-2.5c0.5-0.5,1-0.8,1.6-0.8c0.4,0,0.8,0.1,1.1,0.3c0.4,0.2,0.7,0.6,0.9,1.1
	c0.2,0.5,0.3,1.1,0.3,1.9C264.7,41.2,264.6,41.9,264.4,42.4z M83.5,43.6c-0.8,0-1.4-0.3-1.9-0.8c-0.4-0.6-0.7-1.3-0.7-2.2
	c0-0.7,0.1-1.3,0.3-1.9c0.2-0.5,0.5-0.9,0.9-1.1c0.4-0.2,0.8-0.4,1.2-0.4c0.5,0,0.9,0.2,1.3,0.5c0.4,0.3,0.6,0.7,0.6,1.1h0.6v-2.1
	h-0.5L85,37.3c-0.5-0.4-1.2-0.6-1.9-0.7c-0.8,0-1.5,0.1-2.1,0.4c-0.6,0.3-1.1,0.8-1.5,1.4c-0.3,0.6-0.5,1.3-0.5,2
	c0,0.8,0.2,1.4,0.6,2c0.4,0.6,0.9,1,1.5,1.3c0.6,0.3,1.3,0.4,2,0.4c1.1,0,2.1-0.5,2.8-1.3l-0.5-0.4C85,43.3,84.3,43.6,83.5,43.6z
	 M162.4,40c-0.4-0.1-0.7-0.1-1-0.1h-1v-2.5h0.9v-0.6H158v0.6h0.9v6.1H158v0.6h3.1c2.1,0,3.1-0.7,3.1-2.2c0-0.6-0.2-1.1-0.6-1.4
	C163.2,40.3,162.8,40.1,162.4,40z M162.1,43.1c-0.3,0.3-0.6,0.4-1.1,0.4h-0.6v-3h0.5c0.2,0,0.4,0,0.6,0.1c0.2,0.1,0.4,0.2,0.7,0.4
	c0.2,0.2,0.3,0.5,0.3,1C162.5,42.4,162.4,42.8,162.1,43.1z M164.5,37.4h0.9v6.1h-0.9v0.6h3.3v-0.6H167v-6.1h0.9v-0.6h-3.3V37.4z
	 M105.8,43.6c-0.8,0-1.4-0.3-1.9-0.8c-0.4-0.6-0.7-1.3-0.7-2.2c0-0.7,0.1-1.3,0.3-1.9c0.2-0.5,0.5-0.9,0.9-1.1
	c0.4-0.2,0.8-0.4,1.2-0.4c0.5,0,0.9,0.2,1.3,0.5s0.6,0.7,0.6,1.1h0.6v-2.1h-0.5l-0.4,0.6c-0.5-0.4-1.2-0.6-1.9-0.7
	c-0.8,0-1.5,0.1-2.1,0.4c-0.6,0.3-1.1,0.8-1.5,1.4c-0.3,0.6-0.5,1.3-0.5,2c0,0.8,0.2,1.4,0.6,2c0.4,0.6,0.9,1,1.5,1.3
	c0.6,0.3,1.3,0.4,2,0.4c1.1,0,2.1-0.5,2.8-1.3l-0.5-0.4C107.2,43.3,106.6,43.6,105.8,43.6z M96.2,43.4h-3v-2.8h2.3v0.8h0.6v-2.2
	h-0.6v0.8h-2.3v-2.4H96v0.7h0.6v-1.5h-5.8v0.6h0.9v6.1h-0.9v0.6h6v-1.6h-0.6V43.4z M23.8,11.3h-1.7v2.8h1.7V11.3z M22.9,22.1l-6.1-4
	l-1.1,1.7l5.6,3.6l-0.9,0.7l1,1.3l1.4-1.1l1.4,0.9l1.1-1.7L24.3,23l8.3-6.6l-1-1.3L22.9,22.1z M11,24h2.8v-1.7H11V24z M11.9,6.7
	C10.1,11.8,7.2,19.1,7.2,23c0,3.9,3.3,13.2,4.4,16.5h23.2c1.1-3.4,4.4-12.6,4.4-16.5c0-3.9-2.9-11.3-4.7-16.3H11.9z M22.9,36.9
	c-7.5,0-13.6-6.1-13.6-13.6c0-7.5,6.1-13.6,13.6-13.6c7.5,0,13.6,6.1,13.6,13.6C36.5,30.8,30.4,36.9,22.9,36.9z M32,24.2h2.8v-1.7
	H32V24.2z M22,35.2h1.7v-2.8H22V35.2z"/>
</svg>
