<svg xmlns="http://www.w3.org/2000/svg" xmlns:xlink="http://www.w3.org/1999/xlink"><defs><style>
    .sprite-symbol-usage {display: none;}
    .sprite-symbol-usage:target {display: inline;}
  </style><symbol fill="none" viewBox="0 0 36 16" id="a-empty"><path fill="#EEE" d="M0 0h4v16H0zM8 0h4v16H8zM16 0h4v16h-4zM24 0h4v16h-4zM32 0h4v16h-4z" /></symbol><symbol fill="none" viewBox="0 0 36 16" id="a-high"><path fill="#367C56" d="M0 0h4v16H0zM8 0h4v16H8zM16 0h4v16h-4zM24 0h4v16h-4zM32 0h4v16h-4z" /></symbol><symbol fill="none" viewBox="0 0 36 16" id="a-low"><path fill="#B33333" d="M0 0h4v16H0z" /><path fill="#9AA6BB" d="M8 0h4v16H8zM16 0h4v16h-4zM24 0h4v16h-4zM32 0h4v16h-4z" /></symbol><symbol fill="none" viewBox="0 0 36 16" id="a-medium"><path fill="#F8A82C" d="M0 0h4v16H0zM8 0h4v16H8zM16 0h4v16h-4z" /><path fill="#9AA6BB" d="M24 0h4v16h-4zM32 0h4v16h-4z" /></symbol><symbol viewBox="0 0 512 512" id="china"><defs><path id="china_a" fill="#ffde00" d="M1-.3L-.7.8 0-1 .6.8-1-.3z" /></defs><path fill="#de2910" d="M0 0h512v512H0z" /><use width="30" height="20" transform="matrix(76.8 0 0 76.8 128 128)" xlink:href="#china_a" /><use width="30" height="20" transform="rotate(-121 142.6 -47) scale(25.5827)" xlink:href="#china_a" /><use width="30" height="20" transform="rotate(-98.1 198 -82) scale(25.6)" xlink:href="#china_a" /><use width="30" height="20" transform="rotate(-74 272.4 -114) scale(25.6137)" xlink:href="#china_a" /><use width="30" height="20" transform="matrix(16 -19.968 19.968 16 256 230.4)" xlink:href="#china_a" /></symbol><symbol fill="none" viewBox="0 0 145 133" id="eac"><g clip-path="url(#eac_clip0)"><path d="M144.931-.429H-.855v135.286h145.786V-.429z" fill="#fff" /><path d="M36 10H7v112.65h29v-14.535H21.5V71.776H36V60.874H21.5V24.535H36V10zM65 71.776v50.874H50.5V10H94v112.65H79.5V71.776H65z" fill="#48596C" /><path d="M65 60.874h14.5V20.902H65v39.972z" fill="#fff" /><path d="M137.5 10h-29v112.65h29v-14.535H123v-83.58h14.5V10z" fill="#48596C" /></g><defs></defs></symbol><clipPath id="eac_clip0"><path fill="#fff" d="M0 0h145v133H0z" /></clipPath><symbol viewBox="0 0 24 24" id="facebook"><path d="M15.997 3.985h2.191V.169C17.81.117 16.51 0 14.996 0 8.064 0 9.95 7.85 9.674 9H6.187v4.266h3.486V24h4.274V13.267h3.345l.531-4.266h-3.877c.188-2.824-.761-5.016 2.051-5.016z" fill="#3b5999" /></symbol><symbol viewBox="0 0 512 512" id="germany"><path fill="#ffce00" d="M0 341.3h512V512H0z" /><path d="M0 0h512v170.7H0z" /><path fill="#d00" d="M0 170.7h512v170.6H0z" /></symbol><symbol viewBox="0 0 512 512" id="holland"><path fill="#21468b" d="M0 0h512v512H0z" /><path fill="#fff" d="M0 0h512v341.3H0z" /><path fill="#ae1c28" d="M0 0h512v170.7H0z" /></symbol><symbol viewBox="0 0 512 512" id="hong-kong"><defs></defs><g clip-path="url(#hong-kong_a)" transform="matrix(.7 0 0 .7 -113.4 0)"><path fill="#ba0000" fill-rule="evenodd" d="M1063 744.1H0V0h1063z" /><path fill="#fff" fill-rule="evenodd" d="M516.4 360.1s-75-32.3-64.3-116c10.4-40.3 28.8-67.7 62.2-82.6a223 223 0 0148-8.4c-4.4 4-8 8.1-9.8 13.2-3.6 9.2-1 18 3.8 26.8a78 78 0 0110.8 34.4 53.2 53.2 0 01-21.2 49c-9.6 7.3-21 9.9-30.2 18.3a41.1 41.1 0 00-13.2 26.4c-.3 23.4 6.1 26.7 13.9 39z" /><path fill="#ba0000" fill-rule="evenodd" stroke="#000" stroke-width="3.1" d="M502.1 239v-.3" /><path fill="none" stroke="#ba0000" stroke-width="3.1" d="M506.9 351.4c-29.2-25.8-26.7-90.7-4.4-112.4" /><path fill="#ba0000" fill-rule="evenodd" d="M501.9 223l9.6-2.1 1.1-9.4 4.8 8 9.6-2.1-6.6 7.1 4.8 8-9-3.6-6.6 7.1 1.2-9.3" /><path fill="#fff" fill-rule="evenodd" d="M522.8 354.6s8.9-81.2 92-95.4c41.6-1.9 73.2 7.7 97.3 35.2a223.4 223.4 0 0122 43.4c-5.1-3-10-5.2-15.5-5.5-9.8-.7-17.4 4.4-24.4 11.5-8 8.8-17 15.3-29.8 20.4a53.3 53.3 0 01-53-5.9c-9.9-7-15.6-17.1-26.4-23.5a41 41 0 00-29.1-4.9c-22.5 6.7-23.7 13.7-33.2 24.7z" /><path fill="#ba0000" fill-rule="evenodd" stroke="#000" stroke-width="3.1" d="M634.4 305.5l.3-.1" /><path fill="none" stroke="#ba0000" stroke-width="3.1" d="M528.3 343c16.1-35.5 79-52 106.2-37.2" /><path fill="#ba0000" fill-rule="evenodd" d="M649.6 300.6l4.8 8.6 9.3-1.7-6.2 7 4.9 8.5-8.8-4.3-6.3 7 .9-9.6-8.8-4.3 9.3-1.6" /><path fill="#fff" fill-rule="evenodd" d="M528.4 360.5s79.8-17.4 119.7 57c15 38.8 16 71.8-2.5 103.4-10 13-21.7 24-34.2 34.6 1.2-5.8 1.7-11.2.3-16.4-2.4-9.5-9.7-15.1-18.7-19.5a77.2 77.2 0 01-28.7-21.7 53.3 53.3 0 01-11.3-52.2c3.5-11.6 11.3-20.3 13.9-32.5a41 41 0 00-4.6-29.2c-13.4-19.1-20.5-18-34-23.5z" /><path fill="#ba0000" fill-rule="evenodd" stroke="#000" stroke-width="3.1" d="M610.4 450.7l.2.3" /><path fill="none" stroke="#ba0000" stroke-width="3.1" d="M541.1 362c38.8 4 74.5 58.4 69 88.9" /><path fill="#ba0000" fill-rule="evenodd" d="M619.8 463.6l-6.5 7.3 4.5 8.3-8.6-3.8-6.5 7.4 1.3-9.7-8.6-3.7 9.3-2.2 1.3-9.7 4.5 8.3" /><path fill="#fff" fill-rule="evenodd" d="M526.6 368.7s39 71.7-21.1 131c-33.1 25.2-64.5 35.4-100 26.5-15.3-5.8-29.1-14-42.8-23 5.8-.5 11.2-1.5 15.8-4.4 8.4-5 11.8-13.5 13.5-23.4a77.2 77.2 0 0112.7-33.7 53.2 53.2 0 0147-25.4c12 .1 22.6 5.1 35 4.2a41 41 0 0026.8-12.6c14.6-18.3 11.6-24.8 13-39.2z" /><path fill="#ba0000" fill-rule="evenodd" stroke="#000" stroke-width="3.1" d="M463 472.7l-.2.3" /><path fill="none" stroke="#ba0000" stroke-width="3.1" d="M528.7 381.4c7 38.3-35.1 87.8-66 91.1" /><path fill="#ba0000" fill-rule="evenodd" d="M453.3 485.4l-8.9-4.2-6.7 6.7 1.2-9.3-8.9-4.2 9.7-1.5 1.1-9.3 4.8 8.4 9.6-1.5-6.7 6.6" /><path fill="#fff" fill-rule="evenodd" d="M517.7 367.1s-54.7 60.7-130.5 23.6c-34.8-22.8-54.9-49-58.3-85.4.4-16.3 3.6-32.1 7.5-48 2.5 5.3 5.1 10 9.4 13.4 7.5 6.3 16.7 6.7 26.5 5a77.2 77.2 0 0136 .8 53.3 53.3 0 0139.6 35.8c4 11.5 2.7 23 7.7 34.5a41 41 0 0020.8 21c22 7.7 27.2 2.8 41.3-.7z" /><path fill="#ba0000" fill-rule="evenodd" stroke="#000" stroke-width="3.1" d="M398.4 341.7h-.3" /><path fill="none" stroke="#ba0000" stroke-width="3.1" d="M506.4 373.4c-33.8 19.3-94.5-4-107.8-32" /><path fill="#ba0000" fill-rule="evenodd" d="M383.2 336.8l1-9.8-8.4-4 9.1-2 1-9.8 4.7 8.6 9-2-6.2 7.3 4.6 8.6-8.5-4.1" /></g></symbol><clipPath id="hong-kong_a"><path fill-opacity=".7" d="M164.8 0H909v744H165z" /></clipPath><symbol viewBox="0 0 511 511" id="instagram"><style>#instagram .st0{fill:#d800b9}</style><path class="st0" d="M510.5 150.2c-1.2-27.2-5.6-45.8-11.9-62-6.5-17.2-16.5-32.5-29.5-45.3-12.8-13-28.3-23.1-45.2-29.4-16.3-6.3-34.8-10.7-62-11.9C334.5.3 325.8 0 256.4 0s-78.1.3-105.3 1.5c-27.2 1.2-45.8 5.6-62 11.9C72 19.9 56.6 29.8 43.8 42.9c-13 12.8-23.1 28.3-29.4 45.2-6.3 16.3-10.7 34.8-11.9 62-1.3 27.4-1.6 36-1.6 105.4s.3 78.1 1.5 105.3c1.2 27.2 5.6 45.8 11.9 62 6.5 17.2 16.6 32.5 29.5 45.3 12.8 13 28.3 23.1 45.2 29.4 16.3 6.3 34.8 10.7 62 11.9 27.2 1.2 35.9 1.5 105.3 1.5s78.1-.3 105.3-1.5c27.2-1.2 45.8-5.6 62-11.9 34.3-13.3 61.5-40.4 74.8-74.8 6.3-16.3 10.7-34.8 11.9-62 1.2-27.3 1.5-35.9 1.5-105.3s-.1-77.9-1.3-105.2zm-46 208.7c-1.1 25-5.3 38.4-8.8 47.4-8.6 22.3-26.3 39.9-48.5 48.5-9 3.5-22.6 7.7-47.4 8.8-27 1.2-35 1.5-103.2 1.5s-76.4-.3-103.2-1.5c-25-1.1-38.4-5.3-47.4-8.8-11.1-4.1-21.2-10.6-29.3-19.1-8.5-8.3-15-18.3-19.1-29.3-3.5-9-7.7-22.6-8.8-47.4-1.2-27-1.5-35-1.5-103.2s.3-76.4 1.5-103.2c1.1-25 5.3-38.4 8.8-47.4C61.6 94 68.1 84 76.7 75.8 85 67.3 95 60.8 106 56.7c9-3.5 22.6-7.7 47.4-8.8 27-1.2 35-1.5 103.2-1.5 68.3 0 76.4.3 103.2 1.5 25 1.1 38.4 5.3 47.4 8.8 11.1 4.1 21.2 10.6 29.3 19.1 8.5 8.3 15 18.3 19.1 29.4 3.5 9 7.7 22.6 8.8 47.4 1.2 27 1.5 35 1.5 103.2s-.2 76.1-1.4 103.1z" fill="#d800b9" /><path class="st0" d="M256.4 124.3c-72.5 0-131.3 58.8-131.3 131.3S184 386.8 256.4 386.8c72.5 0 131.3-58.8 131.3-131.3s-58.8-131.2-131.3-131.2zm0 216.4c-47 0-85.2-38.1-85.2-85.2s38.1-85.2 85.2-85.2c47 0 85.2 38.1 85.2 85.2s-38.1 85.2-85.2 85.2zM423.6 119.1c0 16.9-13.7 30.6-30.6 30.6-16.9 0-30.6-13.7-30.6-30.6 0-16.9 13.7-30.6 30.6-30.6 16.8-.1 30.6 13.7 30.6 30.6z" fill="#d800b9" /></symbol><symbol viewBox="0 0 512 512" id="italy"><g fill-rule="evenodd" stroke-width="1pt"><path fill="#fff" d="M0 0h512v512H0z" /><path fill="#009246" d="M0 0h170.7v512H0z" /><path fill="#ce2b37" d="M341.3 0H512v512H341.3z" /></g></symbol><symbol viewBox="0 0 512.479 512.479" id="odnoklassniki"><g fill="#ff9800"><path d="M256.239 277.333c76.583 0 138.667-62.083 138.667-138.667S332.823 0 256.239 0 117.573 62.083 117.573 138.667c.094 76.544 62.122 138.572 138.666 138.666zm0-213.333c41.237 0 74.667 33.429 74.667 74.667s-33.429 74.667-74.667 74.667-74.667-33.429-74.667-74.667S215.002 64 256.239 64z" /><path d="M392.069 343.04a53.72 53.72 0 0024.171-44.8 38.698 38.698 0 00-21.696-35.307 40.534 40.534 0 00-42.667 4.011c-56.983 41.543-134.27 41.543-191.253 0a40.747 40.747 0 00-42.667-4.011 38.74 38.74 0 00-21.717 35.285 53.78 53.78 0 0024.171 44.8 246.275 246.275 0 0062.507 29.867 212.318 212.318 0 0011.627 3.243l-64.469 63.04c-16.912 16.409-17.321 43.42-.912 60.333 16.409 16.912 43.42 17.321 60.333.912.352-.342.698-.689 1.038-1.043l65.707-68.011 65.835 68.139c16.395 16.925 43.407 17.355 60.332.96 16.925-16.395 17.355-43.407.96-60.332a42.943 42.943 0 00-1.047-1.044l-64.363-62.976a270.92 270.92 0 0011.669-3.264 245.352 245.352 0 0062.441-29.802z" /></g></symbol><symbol viewBox="0 0 512 512" id="swiss"><g fill-rule="evenodd" stroke-width="1pt"><path fill="#d52b1e" d="M0 0h512v512H0z" /><g fill="#fff"><path d="M96 208h320v96H96z" /><path d="M208 96h96v320h-96z" /></g></g></symbol><symbol viewBox="0 0 512 512" id="taiwan"><defs></defs><g fill-rule="evenodd" stroke-width="1pt" clip-path="url(#taiwan_a)" transform="scale(1.0321)"><path fill="#fe0000" d="M0 0h744v496H0z" /><path fill="#000095" d="M0 0h373.7v248H0z" /><path fill="#fff" d="M273.3 173l-45.8-9.4 9.7 45.8-35-31.1-14.4 44.5-14.8-44.4-34.8 31.3 9.5-45.8-45.8 9.7 31-35-44.5-14.4 44.5-14.8-31.4-34.8 45.9 9.5-9.8-45.8 35 31 14.5-44.5 14.7 44.5 34.8-31.4-9.4 45.9L273 74l-31.1 35 44.5 14.4-44.4 14.8z" /><path fill="#000095" d="M231 169.5l-14.4 7.7-14.1 8.3-16.4-.6-16.4.2-14-8.6-14.2-8-7.7-14.5-8.4-14 .5-16.4-.1-16.4 8.7-13.8 8-14.3 14.5-7.7 14-8.3 16.5.5 16.4-.2 13.9 8.7 14.3 8 7.7 14.5 8.3 14-.5 16.4.2 16.3-8.7 14z" /><path fill="#fff" d="M237 124.3a50.3 50.3 0 11-100.5 0 50.3 50.3 0 01100.5 0z" /></g></symbol><clipPath id="taiwan_a"><path fill-opacity=".7" d="M0 0h496v496H0z" /></clipPath><symbol viewBox="0 0 512 512" id="usa"><g fill-rule="evenodd"><g stroke-width="1pt"><path fill="#bd3d44" d="M0 0h972.81v39.385H0zm0 78.77h972.81v39.385H0zm0 78.77h972.81v39.385H0zm0 78.77h972.81v39.385H0zm0 78.77h972.81v39.385H0zm0 78.77h972.81v39.385H0zm0 78.77h972.81v39.385H0z" /><path fill="#fff" d="M0 39.385h972.81V78.77H0zm0 78.77h972.81v39.385H0zm0 78.77h972.81v39.385H0zm0 78.77h972.81v39.385H0zm0 78.77h972.81v39.385H0zm0 78.77h972.81v39.385H0z" /></g><path fill="#192f5d" d="M0 0h389.124v275.695H0z" /><path fill="#fff" d="M32.296 11.816l3.938 11.027h11.028l-9.059 6.696 3.545 10.634-9.452-6.696-8.665 6.696 3.545-10.634-9.453-6.696H29.54zm64.985 0l3.545 11.027h11.421l-9.452 6.696 3.938 10.634-9.452-6.696-9.452 6.696 3.938-10.634-9.452-6.696h11.421zm64.985 0l3.545 11.027h11.421l-9.452 6.696 3.939 10.634-9.453-6.696-9.452 6.696 3.938-10.634-9.452-6.696h11.422zm64.592 0l3.938 11.027h11.028l-9.059 6.696 3.545 10.634-9.452-6.696-9.059 6.696 3.545-10.634-9.453-6.696h11.816zm64.985 0l3.544 11.027h11.422l-9.452 6.696 3.938 10.634-9.846-6.696-9.059 6.696 3.545-10.634-9.452-6.696h11.421zm64.985 0l3.545 11.027h11.421l-9.452 6.696 3.938 10.634-9.452-6.696-9.452 6.696 3.938-10.634-9.452-6.696h11.421zM64.985 39.385l3.545 11.028h11.422l-9.453 6.695 3.939 10.634-9.453-6.695-9.452 6.695 3.938-10.634-9.452-6.695h11.422zm64.592 0l3.938 11.028h11.028l-9.059 6.695 3.545 10.634-9.452-6.695-9.059 6.695 3.545-10.634-9.453-6.695h11.816zm64.985 0l3.545 11.028h11.421l-9.452 6.695 3.938 10.634-9.452-6.695-9.453 6.695 3.939-10.634-9.452-6.695h11.421zm64.985 0l3.545 11.028h11.421l-9.452 6.695L269 67.742l-9.453-6.695-9.452 6.695 3.938-10.634-9.452-6.695h11.421zm64.592 0l3.938 11.028h10.634l-9.059 6.695 3.545 10.634-9.452-6.695-9.059 6.695 3.545-10.634-9.453-6.695h11.816zm-291.45 27.57l3.151 11.027h11.816l-9.453 6.696 3.545 10.634-9.452-6.696-8.665 6.696 3.545-10.634-9.453-6.696H29.54zm64.592 0l3.545 11.027h11.421l-9.058 6.696 3.544 10.634-9.452-6.696-9.059 6.696 3.545-10.634-9.452-6.696h11.421zm64.985 0l3.545 11.027h11.421l-9.452 6.696 3.939 10.634-9.453-6.696-9.452 6.696 3.938-10.634-9.452-6.696h11.422zm64.592 0l3.938 11.027h11.028l-9.059 6.696 3.545 10.634-9.452-6.696-9.059 6.696 3.545-10.634-9.453-6.696h11.816zm64.985 0l3.544 11.027h11.422l-9.058 6.696 3.544 10.634-9.452-6.696-9.059 6.696 3.545-10.634-9.452-6.696h11.421zm64.985 0l3.545 11.027h11.421l-9.452 6.696 3.938 10.634-9.452-6.696-9.452 6.696 3.938-10.634-9.452-6.696h11.421zM64.985 94.523l3.545 11.028h11.422l-9.453 6.695 3.939 10.634-9.453-6.695-9.452 6.695 3.938-10.634-9.452-6.695h11.422zm64.592 0l3.938 11.028h11.028l-9.059 6.695 3.545 10.634-9.452-6.695-9.059 6.695 3.545-10.634-9.453-6.695h11.816zm64.985 0l3.545 11.028h11.421l-9.058 6.695 3.544 10.634-9.452-6.695-9.059 6.695 3.545-10.634-9.452-6.695h11.421zm64.985 0l3.545 11.028h11.421l-9.452 6.695L269 122.881l-9.453-6.695-9.452 6.695 3.938-10.634-9.452-6.695h11.421zm64.592 0l3.938 11.028h10.634l-9.059 6.695 3.545 10.634-9.452-6.695-9.059 6.695 3.545-10.634-9.453-6.695h11.816zm-291.45 27.57l3.151 11.027h11.816l-9.453 6.696 3.545 10.634-9.452-6.696-8.665 6.696 3.545-10.634-9.453-6.696H29.54zm64.592 0l3.545 11.027h11.421l-9.058 6.696 3.544 10.634-9.452-6.696-9.059 6.696 3.545-10.634-9.452-6.696h11.421zm64.985 0l3.545 11.027h11.421l-9.452 6.696 3.939 10.634-9.453-6.696-9.452 6.696 3.938-10.634-9.452-6.696h11.422zm64.592 0l3.938 11.027h11.028l-9.059 6.696 3.545 10.634-9.452-6.696-9.059 6.696 3.545-10.634-9.453-6.696h11.816zm64.985 0l3.544 11.027h11.422l-9.058 6.696 3.544 10.634-9.452-6.696-9.059 6.696 3.545-10.634-9.452-6.696h11.421zm64.985 0l3.545 11.027h11.421l-9.452 6.696 3.938 10.634-9.452-6.696-9.452 6.696 3.938-10.634-9.452-6.696h11.421zM64.985 149.662l3.545 11.028h11.422l-9.453 6.695 3.939 10.634-9.453-6.695-9.452 6.695 3.938-10.634-9.452-6.695h11.422zm64.592 0l3.938 11.028h11.028l-9.059 6.695 3.545 10.634-9.452-6.695-9.059 6.695 3.545-10.634-9.453-6.695h11.816zm64.985 0l3.545 11.028h11.421l-9.058 6.695 3.544 10.634-9.452-6.695-9.059 6.695 3.545-10.634-9.452-6.695h11.421zm64.985 0l3.545 11.028h11.421l-9.452 6.695L269 178.02l-9.453-6.695-9.452 6.695 3.938-10.634-9.452-6.695h11.421zm64.592 0l3.938 11.028h10.634l-9.059 6.695 3.545 10.634-9.452-6.695-9.059 6.695 3.545-10.634-9.453-6.695h11.816zm-291.45 27.57l3.151 11.027h11.816l-9.453 6.696 3.545 10.634-9.452-6.696-8.665 6.696 3.545-10.634-9.453-6.696H29.54zm64.592 0l3.545 11.027h11.421l-9.058 6.696 3.544 10.634-9.452-6.696-9.059 6.696 3.545-10.634-9.452-6.696h11.421zm64.985 0l3.545 11.027h11.421l-9.452 6.696 3.939 10.634-9.453-6.696-9.452 6.696 3.938-10.634-9.452-6.696h11.422zm64.592 0l3.938 11.027h11.028l-9.059 6.696 3.545 10.634-9.452-6.696-9.059 6.696 3.545-10.634-9.453-6.696h11.816zm64.985 0l3.544 11.027h11.422l-9.058 6.696 3.544 10.634-9.452-6.696-9.059 6.696 3.545-10.634-9.452-6.696h11.421zm64.985 0l3.545 11.027h11.421l-9.452 6.696 3.938 10.634-9.452-6.696-9.452 6.696 3.938-10.634-9.452-6.696h11.421zM64.985 204.802l3.545 11.028h11.422l-9.453 6.695 3.939 10.634-9.453-6.695-9.452 6.695 3.938-10.634-9.452-6.695h11.422zm64.592 0l3.938 11.028h11.028l-9.059 6.695 3.545 10.634-9.452-6.695-9.059 6.695 3.545-10.634-9.453-6.695h11.816zm64.985 0l3.545 11.028h11.421l-9.058 6.695 3.544 10.634-9.452-6.695-9.059 6.695 3.545-10.634-9.452-6.695h11.421zm64.985 0l3.545 11.028h11.421l-9.452 6.695L269 233.16l-9.453-6.695-9.452 6.695 3.938-10.634-9.452-6.695h11.421zm64.592 0l3.938 11.028h10.634l-9.059 6.695 3.545 10.634-9.452-6.695-9.059 6.695 3.545-10.634-9.453-6.695h11.816zm-291.45 27.57l3.151 11.027h11.816l-9.453 6.696 3.545 10.634-9.452-6.696-8.665 6.696 3.545-10.634-9.453-6.696H29.54zm64.592 0l3.545 11.027h11.421l-9.058 6.696 3.544 10.634-9.452-6.696-9.059 6.696 3.545-10.634-9.452-6.696h11.421zm64.985 0l3.545 11.027h11.421l-9.452 6.696 3.939 10.634-9.453-6.696-9.452 6.696 3.938-10.634-9.452-6.696h11.422zm64.592 0l3.938 11.027h11.028l-9.059 6.696 3.545 10.634-9.452-6.696-9.059 6.696 3.545-10.634-9.453-6.696h11.816zm64.985 0l3.544 11.027h11.422l-9.058 6.696 3.544 10.634-9.452-6.696-9.059 6.696 3.545-10.634-9.452-6.696h11.421zm64.985 0l3.545 11.027h11.421l-9.452 6.696 3.938 10.634-9.452-6.696-9.452 6.696 3.938-10.634-9.452-6.696h11.421z" /></g></symbol><symbol viewBox="0 0 24 24" id="vk"><path d="M19.915 13.028c-.388-.49-.277-.708 0-1.146.005-.005 3.208-4.431 3.538-5.932l.002-.001c.164-.547 0-.949-.793-.949h-2.624c-.668 0-.976.345-1.141.731 0 0-1.336 3.198-3.226 5.271-.61.599-.892.791-1.225.791-.164 0-.419-.192-.419-.739V5.949c0-.656-.187-.949-.74-.949H9.161c-.419 0-.668.306-.668.591 0 .622.945.765 1.043 2.515v3.797c0 .832-.151.985-.486.985-.892 0-3.057-3.211-4.34-6.886-.259-.713-.512-1.001-1.185-1.001H.9c-.749 0-.9.345-.9.731 0 .682.892 4.073 4.148 8.553C6.318 17.343 9.374 19 12.154 19c1.671 0 1.875-.368 1.875-1.001 0-2.922-.151-3.198.686-3.198.388 0 1.056.192 2.616 1.667C19.114 18.217 19.407 19 20.405 19h2.624c.748 0 1.127-.368.909-1.094-.499-1.527-3.871-4.668-4.023-4.878z" fill="#4b729f" /></symbol><symbol viewBox="0 -77 512.002 512" id="youtube"><path d="M501.453 56.094c-5.902-21.934-23.195-39.223-45.125-45.13C416.262 0 255.996 0 255.996 0S95.734 0 55.668 10.547C34.16 16.449 16.445 34.164 10.543 56.094 0 96.156 0 179.242 0 179.242s0 83.504 10.543 123.149c5.906 21.93 23.195 39.222 45.129 45.129C96.156 358.484 256 358.484 256 358.484s160.262 0 200.328-10.546c21.934-5.903 39.223-23.196 45.129-45.125C512 262.745 512 179.663 512 179.663s.422-83.508-10.547-123.57zm0 0" fill="red" /><path d="M204.969 256l133.27-76.758-133.27-76.758zm0 0" fill="#fff" /></symbol></defs><use id="a-empty-usage" xlink:href="#a-empty" class="sprite-symbol-usage" /><use id="a-high-usage" xlink:href="#a-high" class="sprite-symbol-usage" /><use id="a-low-usage" xlink:href="#a-low" class="sprite-symbol-usage" /><use id="a-medium-usage" xlink:href="#a-medium" class="sprite-symbol-usage" /><use id="china-usage" xlink:href="#china" class="sprite-symbol-usage" /><use id="eac-usage" xlink:href="#eac" class="sprite-symbol-usage" /><use id="facebook-usage" xlink:href="#facebook" class="sprite-symbol-usage" /><use id="germany-usage" xlink:href="#germany" class="sprite-symbol-usage" /><use id="holland-usage" xlink:href="#holland" class="sprite-symbol-usage" /><use id="hong-kong-usage" xlink:href="#hong-kong" class="sprite-symbol-usage" /><use id="instagram-usage" xlink:href="#instagram" class="sprite-symbol-usage" /><use id="italy-usage" xlink:href="#italy" class="sprite-symbol-usage" /><use id="odnoklassniki-usage" xlink:href="#odnoklassniki" class="sprite-symbol-usage" /><use id="swiss-usage" xlink:href="#swiss" class="sprite-symbol-usage" /><use id="taiwan-usage" xlink:href="#taiwan" class="sprite-symbol-usage" /><use id="usa-usage" xlink:href="#usa" class="sprite-symbol-usage" /><use id="vk-usage" xlink:href="#vk" class="sprite-symbol-usage" /><use id="youtube-usage" xlink:href="#youtube" class="sprite-symbol-usage" /></svg>