<svg width="144" height="61" viewBox="0 0 144 61" fill="none" xmlns="http://www.w3.org/2000/svg">
<path d="M10.3301 2.1451H8.72006C8.22306 2.1451 7.74306 2.2481 7.27806 2.4551C6.81206 2.6621 6.39806 2.9921 6.03806 3.4471C5.67606 3.9021 5.38806 4.4851 5.16806 5.1991C4.95206 5.9111 4.84406 6.7631 4.84406 7.7551C4.84406 8.7251 4.96406 9.5481 5.20106 10.2191C5.43906 10.8911 5.75406 11.4441 6.14706 11.8791C6.54006 12.3121 6.98406 12.6271 7.48006 12.8231C7.97506 13.0201 8.49206 13.1181 9.03006 13.1181H10.3301V2.1441V2.1451ZM4.13006 24.0001H1.31006L6.33206 14.7301C4.86506 14.0281 3.81606 13.0931 3.18606 11.9251C2.55606 10.7581 2.24006 9.3681 2.24006 7.7551C2.24006 6.5151 2.41606 5.4211 2.76706 4.4701C3.11706 3.5201 3.59406 2.7201 4.19306 2.0681C4.79306 1.4161 5.49006 0.926098 6.28506 0.595098C7.08206 0.265098 7.92306 0.100098 8.81306 0.100098H12.7811V24.0001H10.3301V15.1341H8.72006L4.13006 24.0001Z" fill="#FF0000"/>
<path fill-rule="evenodd" clip-rule="evenodd" d="M37.3002 27.0998H35.1002V23.9698H28.2502V27.0998H26.0482V21.9538H27.0082C27.5052 21.0238 27.8922 20.0218 28.1722 18.9468C28.4522 17.8718 28.6622 16.7868 28.8072 15.6918C28.9522 14.5968 29.0392 13.5118 29.0712 12.4368C29.1032 11.3618 29.1182 10.3388 29.1182 9.3668V8.0048H36.0622V21.9548H37.3022V27.0998H37.3002ZM48.0272 23.2558C47.5102 23.5458 46.9372 23.7978 46.3072 24.0158C45.6772 24.2328 44.9672 24.3408 44.1832 24.3408C42.5712 24.3408 41.2792 23.6708 40.3082 22.3268C39.3382 20.9838 38.8512 19.0928 38.8512 16.6538C38.8512 15.4758 38.9512 14.3438 39.1462 13.2598C39.3432 12.1728 39.6422 11.2128 40.0462 10.3758C40.4492 9.53781 40.9602 8.8658 41.5802 8.3608C42.2002 7.8548 42.9432 7.6008 43.8102 7.6008C45.0922 7.6008 46.1262 8.2428 46.9102 9.5238C47.6962 10.8038 48.0902 12.6958 48.0902 15.1968V16.5608H41.4242C41.4242 18.2968 41.7182 19.6508 42.3072 20.6208C42.8972 21.5928 43.8212 22.0788 45.0822 22.0788C45.5572 22.0788 46.0482 22.0118 46.5542 21.8788C47.0612 21.7428 47.4592 21.6138 47.7482 21.4888L48.0282 23.2568L48.0272 23.2558ZM43.7172 9.5858C43.3672 9.5858 43.0572 9.70881 42.7872 9.9558C42.5192 10.2058 42.2922 10.5508 42.1072 10.9958C41.9202 11.4398 41.7752 11.9618 41.6722 12.5608C41.5692 13.1608 41.4962 13.8108 41.4552 14.5148H45.5472V14.1748C45.5472 14.0708 45.5422 13.9568 45.5322 13.8328C45.5222 13.7088 45.5162 13.5748 45.5162 13.4298C45.4332 12.2098 45.2362 11.2638 44.9262 10.5918C44.6162 9.9218 44.2142 9.5848 43.7182 9.5848L43.7172 9.5858ZM33.6122 9.9878V21.9538H29.1802C29.5922 21.2718 29.9332 20.4658 30.2022 19.5358C30.4722 18.6058 30.6882 17.6188 30.8522 16.5758C31.0182 15.5318 31.1322 14.4678 31.1942 13.3818C31.2562 12.2968 31.2872 11.2688 31.2872 10.2978V9.9878H33.6122ZM24.6222 8.0038V23.9698H22.1722V16.3428H18.5152V23.9688H16.0352V8.0028H18.5152V14.2958H22.1732V8.0038H24.6232H24.6222ZM59.8702 23.9698H57.1102L53.2972 16.0948L53.0172 15.7548V23.9688H50.5372V8.0028H53.0172V15.2568L53.2972 14.9468L56.6772 8.0028H59.3112L55.4062 15.1948L59.8702 23.9678V23.9698ZM63.0622 16.0328C63.0622 17.9128 63.3522 19.3908 63.9302 20.4658C64.5102 21.5408 65.3972 22.0778 66.5962 22.0778C67.0512 22.0778 67.5162 22.0108 67.9912 21.8778C68.4672 21.7418 68.8512 21.6128 69.1392 21.4878L69.3872 23.2558C68.9122 23.5458 68.3802 23.7978 67.7912 24.0158C67.2012 24.2328 66.5352 24.3408 65.7912 24.3408C64.2012 24.3408 62.9132 23.6808 61.9312 22.3578C60.9512 21.0348 60.4592 19.1338 60.4592 16.6538C60.4592 15.2898 60.5992 14.0498 60.8792 12.9338C61.1572 11.8178 61.5342 10.8668 62.0092 10.0818C62.4842 9.2978 63.0532 8.6878 63.7142 8.2538C64.3742 7.8198 65.0882 7.6038 65.8542 7.6038C66.5342 7.6038 67.1502 7.6958 67.6982 7.8818C68.2452 8.0678 68.7362 8.3158 69.1702 8.6258L67.8982 10.7658C67.6082 10.4338 67.2832 10.1558 66.9212 9.9278C66.5612 9.7008 66.1942 9.5878 65.8212 9.5878C65.3882 9.5878 64.9952 9.77281 64.6442 10.1448C64.2942 10.5168 64.0042 11.0028 63.7762 11.6018C63.5492 12.2018 63.3732 12.8878 63.2492 13.6638C63.1252 14.4388 63.0632 15.2288 63.0632 16.0338L63.0622 16.0328ZM80.0922 20.2608H81.2982L84.6082 7.9528C84.8542 7.0248 85.0712 6.1278 85.3482 4.8908H85.4732C85.4112 6.0048 85.3492 7.1178 85.3492 8.1708V23.6638H86.8332V1.5498H85.1012L81.3302 15.6838C81.1742 16.2408 80.9262 17.4158 80.8032 18.2508H80.7102C80.6172 17.4168 80.4002 16.2728 80.2462 15.6848L76.5042 1.5498H74.7102V23.6628H76.0702V8.1698C76.0702 7.0548 76.0402 5.9418 75.9782 4.8898H76.0712C76.2572 5.9098 76.5052 6.8998 76.8142 8.0448L80.0901 20.2598L80.0922 20.2608ZM93.3902 22.7978C94.8442 22.7978 95.8652 21.4078 96.4202 19.7358V15.4378H94.7502C92.1842 15.4378 90.9472 16.6128 90.9472 19.3338C90.9472 21.5298 91.9072 22.7978 93.3902 22.7978ZM96.8542 23.6638C96.7302 23.2618 96.5762 22.6738 96.4842 21.5608C95.7412 23.0458 94.6272 23.9738 93.0812 23.9738C90.9792 23.9738 89.5252 22.3038 89.5252 19.4578C89.5252 16.1178 91.3502 14.3858 94.7212 14.3858H96.4212V12.4378C96.4212 10.0558 95.5252 9.0348 93.8242 9.0348C92.4942 9.0348 91.2882 9.65481 90.5462 10.7368L90.1441 9.3448C90.7621 8.5408 92.0612 7.7668 93.8242 7.7668C96.3912 7.7668 97.8442 9.1898 97.8442 12.2828V20.7878C97.8442 21.8698 98.0002 23.0778 98.1842 23.6638H96.8542ZM105.514 22.7978C107.494 22.7978 108.792 20.4478 108.792 15.5298C108.792 11.4468 107.679 9.0338 105.885 9.0338C104.493 9.0338 103.318 10.5188 102.638 12.1888V20.9088C103.256 22.1788 104.122 22.7958 105.514 22.7958V22.7978ZM105.421 23.9428C104.247 23.9428 103.226 23.3548 102.639 22.5828V28.4888H101.185V8.0758H102.453L102.577 10.6428C103.257 9.1578 104.402 7.7658 106.133 7.7658C108.731 7.7658 110.247 10.8898 110.247 15.4058C110.247 21.1258 108.329 23.9418 105.422 23.9418L105.421 23.9428ZM114.484 15.5928L119.896 23.6628H121.506L115.999 15.3128L121.133 8.0768H119.711L114.484 15.4068V8.0768H113.03V23.6638H114.483V15.5898L114.484 15.5928ZM130.628 21.0348L131.092 22.2108C131.092 22.2108 129.918 23.9738 127.444 23.9738C124.134 23.9738 122.619 20.9738 122.619 15.8698C122.619 10.7658 124.536 7.7658 127.165 7.7658C129.855 7.7658 131.588 10.5808 131.093 16.1158H124.043C124.103 20.3858 125.218 22.7058 127.476 22.7058C129.546 22.7058 130.629 21.0358 130.63 21.0338L130.628 21.0348ZM127.164 8.9748C125.524 8.9748 124.194 11.0768 124.072 14.9748H129.732C129.98 10.8288 128.742 8.9748 127.165 8.9748H127.164ZM141.391 9.2828V8.0758H132.731V9.2818H136.351V23.6618H137.803V9.2828H141.391Z" fill="#333333"/>
<path fill-rule="evenodd" clip-rule="evenodd" d="M131.737 56.1606L139.251 60.4761L137.263 52.3372L143.895 46.8639L135.152 46.1494L131.737 38.4761L128.322 46.1494L119.579 46.8639L126.211 52.3372L124.223 60.4761L131.737 56.1606Z" fill="#F8A82C"/>
<path fill-rule="evenodd" clip-rule="evenodd" d="M102 56.1606L109.514 60.4761L107.526 52.3372L114.158 46.8639L105.415 46.1494L102 38.4761L98.585 46.1494L89.8423 46.8639L96.4744 52.3372L94.4866 60.4761L102 56.1606Z" fill="#F8A82C"/>
<path fill-rule="evenodd" clip-rule="evenodd" d="M72.2634 56.1606L79.7769 60.4761L77.7891 52.3372L84.4213 46.8639L75.6785 46.1494L72.2634 38.4761L68.8482 46.1494L60.1055 46.8639L66.7376 52.3372L64.7498 60.4761L72.2634 56.1606Z" fill="#F8A82C"/>
<path fill-rule="evenodd" clip-rule="evenodd" d="M42.5261 56.1606L50.0396 60.4761L48.0518 52.3372L54.684 46.8639L45.9412 46.1494L42.5261 38.4761L39.1109 46.1494L30.3682 46.8639L37.0003 52.3372L35.0125 60.4761L42.5261 56.1606Z" fill="#F8A82C"/>
<path fill-rule="evenodd" clip-rule="evenodd" d="M12.7892 56.1606L20.3028 60.4761L18.315 52.3372L24.9471 46.8639L16.2044 46.1494L12.7892 38.4761L9.37409 46.1494L0.631348 46.8639L7.26348 52.3372L5.27566 60.4761L12.7892 56.1606Z" fill="#F8A82C"/>
</svg>
