<svg width="20" height="19" viewBox="0 0 20 19" xmlns="http://www.w3.org/2000/svg" xmlns:xlink="http://www.w3.org/1999/xlink"><title>Group 5783</title><defs><path d="M10.102 1.112a.536.536 0 0 1 .516-.357c.237 0 .437.138.515.357l2.093 5.819c.077.213.27.35.501.356l6.287.157a.536.536 0 0 1 .505.368.516.516 0 0 1-.185.587l-4.999 3.764a.516.516 0 0 0-.19.572l1.791 5.93a.516.516 0 0 1-.204.581.547.547 0 0 1-.631.006l-5.172-3.498a.55.55 0 0 0-.623 0l-5.171 3.498a.547.547 0 0 1-.63-.006.516.516 0 0 1-.205-.582l1.79-5.929a.515.515 0 0 0-.19-.572L.902 8.4a.516.516 0 0 1-.185-.587.536.536 0 0 1 .505-.368l6.286-.157a.537.537 0 0 0 .502-.356l2.092-5.82z" id="a"/></defs><g transform="translate(-1 -1)" fill="none" fill-rule="evenodd"><mask id="b" fill="#fff"><use xlink:href="#a"/></mask><path fill="#FF9947" mask="url(#b)" d="M1 29.594h29.86V1H1z"/></g></svg>