<svg xmlns="http://www.w3.org/2000/svg" viewBox="0 0 850.39 850.39"><defs/><path d="M182.41 337.25c-5.54 0-10.02-4.49-10.02-10.02.07-137.99 112-249.8 249.99-249.72 28.11.01 56.01 4.77 82.53 14.07 5.23 1.83 8 7.55 6.17 12.79-1.83 5.23-7.55 8-12.79 6.17-119.77-42-250.89 21.05-292.89 140.81a229.79 229.79 0 00-12.94 75.87c0 5.54-4.49 10.02-10.02 10.02-.01.01-.02.01-.03.01zM548 135.17c64.8 42.39 103.81 114.63 103.72 192.06v12.62h20.05v-12.62c.1-84.18-42.3-162.72-112.74-208.82-4.63-3.04-10.85-1.76-13.89 2.87-3.05 4.62-1.77 10.84 2.86 13.89zM603.15 339.84v-16.15c0-5.54-4.49-10.02-10.02-10.02-5.54 0-10.02 4.49-10.02 10.02v16.15h20.04z"/><path d="M180.47 404.26c-5.54 0-10.02-4.49-10.02-10.02 0-5.54 4.49-10.02 10.02-10.02 33.41-.04 60.49-27.11 60.52-60.52.03-100.02 81.15-181.08 181.17-181.05 75.71.03 143.41 47.14 169.74 118.12 1.94 5.19-.7 10.97-5.89 12.91-5.19 1.94-10.97-.7-12.91-5.89-30.94-83.4-123.62-125.93-207.02-95-63.12 23.41-105.02 83.62-105.05 150.95-.06 44.45-36.09 80.47-80.56 80.52z"/><path d="M182.41 477.69c-5.54 0-10.02-4.49-10.02-10.02s4.49-10.02 10.02-10.02c31.12.62 61.3-10.7 84.33-31.65a137.047 137.047 0 0043.1-102.03v-1.1a111.87 111.87 0 0144.1-89.35c4.33-3.44 10.64-2.72 14.08 1.61 3.44 4.33 2.72 10.64-1.61 14.08-.09.07-.17.14-.26.2a91.949 91.949 0 00-36.27 73.45v1.1c.62 44.22-17.43 86.66-49.72 116.89a141.035 141.035 0 01-97.75 36.84zM515.03 339.84h20.05v-16.98c-.07-62.16-50.44-112.54-112.61-112.61-5.54 0-10.02 4.49-10.02 10.02 0 5.54 4.49 10.02 10.02 10.02 51.1.06 92.51 41.46 92.56 92.56v16.99zM182.41 549.21c-5.54 0-10.02-4.49-10.02-10.02s4.49-10.02 10.02-10.02c1 0 103.11-.94 142.16-66.62 2.73-4.82 8.84-6.51 13.66-3.79 4.82 2.73 6.51 8.84 3.79 13.66-.07.13-.15.26-.23.38-44.93 75.54-154.73 76.41-159.38 76.41zM354.27 436.91a10.038 10.038 0 0013.89-2.86 201.117 201.117 0 0028.87-107.48 25.63 25.63 0 015.87-17.24c9.02-10.89 25.16-12.4 36.05-3.38a25.162 25.162 0 019.22 19.96c-.19 10.26-.83 21.36-2.13 33.02h20c1.35-12.15 1.95-23.21 2.12-32.69a45.139 45.139 0 00-16.52-35.79A45.643 45.643 0 00421.03 280c-25.19.84-44.94 21.94-44.1 47.13.43 33.7-8.4 66.87-25.53 95.89-3.03 4.63-1.75 10.84 2.87 13.89zM401.94 484.89c-37.6 55.77-104.27 103.87-220.77 118.44-4.99.64-8.74 4.88-8.76 9.91-.02 5.54 4.46 10.04 9.99 10.06.42 0 .84-.02 1.25-.08 108.86-13.61 176.47-56.04 218.29-106.23v-32.1zM369.21 617.13c-33.24 21.95-78.2 43.39-137.84 57.23-5.25 1.31-8.52 6.55-7.38 11.84 1.17 5.41 6.5 8.85 11.91 7.69 55.96-12.99 99.64-32.28 133.31-52.75v-24.01zM369.21 714.28c-16.84 7.61-37.71 15.19-63.5 22.01a10.028 10.028 0 00-7.51 9.75c.03 5.54 4.54 10 10.07 9.97.87-.01 1.73-.13 2.57-.34 22.8-6.04 42.08-12.69 58.36-19.53v-21.86zM56.46 212.5v-87.17c0-37.79 30.75-68.54 68.54-68.54h87.5v-14H125c-45.51 0-82.54 37.03-82.54 82.54v87.17h14zM639 56.63h87.17c37.79 0 68.54 30.75 68.54 68.54v87.5h14v-87.5c0-45.51-37.03-82.54-82.54-82.54H639v14zM794.88 639.64v87.17c0 37.79-30.75 68.54-68.54 68.54h-87.5v14h87.5c45.51 0 82.54-37.03 82.54-82.54v-87.17h-14zM212.5 795.36h-87.17c-37.79 0-68.54-30.75-68.54-68.54v-87.5h-14v87.5c0 45.51 37.03 82.54 82.54 82.54h87.17v-14z"/><path fill="#07080a" d="M718.38 573.06v171.28c-.34 1.46-.63 2.93-1.01 4.38-2.5 9.32-12.27 19.71-27.05 19.69-90.91-.14-181.83-.07-272.74-.07-1.95 0-3.9-.03-5.82-.39-12.94-2.45-22.21-13.67-22.21-26.85 0-54.9 0-109.8-.01-164.7 0-1.96.2-3.88.57-5.8 2.11-10.87 11.92-19.96 22.88-21.25 3.89-.46 7.79-.2 11.69-.21 1.22-.01 1.44-.33 1.44-1.49-.04-17.03.01-34.06-.04-51.09-.02-7.43.35-14.81 1.43-22.17 1.8-12.22 5.33-23.9 10.73-34.99 8.7-17.86 21.19-32.69 36.49-45.21 19.12-15.65 41.02-24.7 65.61-27.14 9.58-.95 19.17-.88 28.76.18 8.84.98 17.49 2.76 25.88 5.66 28.94 10.01 51.05 28.73 67.69 54.05 13.05 19.86 19.04 41.97 19.18 65.67.1 18.36.04 36.73-.01 55.09 0 1.21.31 1.48 1.48 1.44 2.76-.09 5.52-.04 8.28-.03 11.43.06 21.8 7.63 25.47 18.51.57 1.77.73 3.65 1.31 5.44zm-164.44-23.98c23.93 0 47.85-.01 71.78.02 1 0 1.35-.14 1.35-1.27-.04-17.74-.01-35.48-.04-53.23-.02-9.67-1.58-19.06-5.25-28.05-8.48-20.77-30.42-42.26-59.55-44.87-8.88-.8-17.64-.43-26.31 1.68-15.81 3.83-28.45 12.63-38.77 24.98-11.24 13.45-16.28 29.11-16.28 46.52.01 17.55.02 35.1-.03 52.65 0 1.28.3 1.61 1.6 1.61 23.84-.05 47.67-.04 71.5-.04z"/></svg>